{"title":"Daffy Duck's Movie Fantastic Island (1983) 1080P WEB-DL","uid":10728072,"size":3113928811,"categoryP":"video","categoryS":"hd___movies","magnet":"?xt=urn:btih:ada7d10520754bdee94487a16623627ea1b80b4e&amp;dn=Daffy+Duck%27s+Movie+Fantastic+Island+%281983%29+1080P+WEB-DL&amp;tr=udp%3A%2F%2Ftracker.openbittorrent.com%3A80&amp;tr=udp%3A%2F%2Fopen.demonii.com%3A1337&amp;tr=udp%3A%2F%2Ftracker.coppersurfer.tk%3A6969&amp;tr=udp%3A%2F%2Fexodus.desync.com%3A6969","seeders":4,"leechers":1,"uploader":"jmanwf","files":-1,"time":1407597606,"description":"Storyline\n\nDaffy Duck and Speedy Gonzales find a treasure map that leads them to a wishing well, which for a penny will grant any wish (through old cartoon footage). Daffy sets up a resort around the well and various Looney Tunes characters have their dreams come true. Meanwhile, Yosemite Sam and the Tasmanian Devil hunt for the varmints who stole their treasure map!\n\n\n\nFormat : MPEG-4\nFormat profile : Base Media\nCodec ID : isom\nFile size : 2.90 GiB\nDuration : 1h 18mn\nOverall bit rate : 5 318 Kbps\nWriting application : Lavf54.63.104\n\nVideo\nID : 1\nFormat : AVC\nFormat/Info : Advanced Video Codec\nFormat profile : &lt;a class=&quot;__cf_email__&quot; href=&quot;/cdn-cgi/l/email-protection&quot; data-cfemail=&quot;eba3828c83aba7dfc5db&quot;&gt;[email&amp;#160;protected]&lt;/a&gt;&lt;script cf-hash='f9e31' type=&quot;text/javascript&quot;&gt;\n/* &lt;![CDATA[ */!function(){try{var t=&quot;currentScript&quot;in document?document.currentScript:function(){for(var t=document.getElementsByTagName(&quot;script&quot;),e=t.length;e--;)if(t[e].getAttribute(&quot;cf-hash&quot;))return t[e]}();if(t&amp;&amp;t.previousSibling){var e,r,n,i,c=t.previousSibling,a=c.getAttribute(&quot;data-cfemail&quot;);if(a){for(e=&quot;&quot;,r=parseInt(a.substr(0,2),16),n=2;a.length-n;n+=2)i=parseInt(a.substr(n,2),16)^r,e+=String.fromCharCode(i);e=document.createTextNode(e),c.parentNode.replaceChild(e,c)}}}catch(u){}}();/* ]]&gt; */&lt;/script&gt;\nFormat settings, CABAC : Yes\nFormat settings, ReFrames : 5 frames\nFormat settings, GOP : N=2\nCodec ID : avc1\nCodec ID/Info : Advanced Video Coding\nDuration : 1h 18mn\nBit rate : 5 182 Kbps\nWidth : 1 476 pixels\nHeight : 1 076 pixels\nDisplay aspect ratio : 1.372\nFrame rate mode : Variable\nFrame rate : 23.976 fps\nMinimum frame rate : 11.988 fps\nMaximum frame rate : 23.977 fps\nColor space : YUV\nChroma subsampling : 4:2:0\nBit depth : 8 bits\nScan type : Progressive\nBits/(Pixel*Frame) : 0.136\nStream size : 2.83 GiB (97%)\nColor primaries : BT.709\nTransfer characteristics : BT.709\nMatrix coefficients : BT.709\n\nAudio\nID : 2\nFormat : AAC\nFormat/Info : Advanced Audio Codec\nFormat profile : LC\nCodec ID : 40\nDuration : 1h 18mn\nBit rate mode : Constant\nBit rate : 128 Kbps\nChannel(s) : 2 channels\nChannel positions : Front: L R\nSampling rate : 44.1 KHz\nCompression mode : Lossy\nStream size : 71.4 MiB (2%)\nLanguage : English\n\n\n\n &lt;a href=&quot;\nhttp://www.imdb.com/title/tt0085390/&quot; rel=&quot;nofollow&quot; target=&quot;_NEW&quot;&gt;\nhttp://www.imdb.com/title/tt0085390/&lt;/a&gt;","torrent":{"xt":"urn:btih:ada7d10520754bdee94487a16623627ea1b80b4e","amp;dn":"Daffy+Duck%27s+Movie+Fantastic+Island+%281983%29+1080P+WEB-DL","amp;tr":["udp%3A%2F%2Ftracker.openbittorrent.com%3A80","udp%3A%2F%2Fopen.demonii.com%3A1337","udp%3A%2F%2Ftracker.coppersurfer.tk%3A6969","udp%3A%2F%2Fexodus.desync.com%3A6969"],"infoHash":"ada7d10520754bdee94487a16623627ea1b80b4e","infoHashBuffer":{"type":"Buffer","data":[173,167,209,5,32,117,75,222,233,68,135,161,102,35,98,126,161,184,11,78]},"announce":[],"urlList":[]}}